<svg width="104" height="72" viewBox="0 0 104 72" fill="none" xmlns="http://www.w3.org/2000/svg">
<path d="M103.683 32.6954L93.4815 6.51332C92.6849 4.44839 90.4737 3.46164 88.5406 4.29675L78.8595 8.43305C78.4214 8.63087 78.0204 8.91026 77.6756 9.25794C77.0381 9.90295 76.6377 10.7664 76.5456 11.6944C70.8015 10.9954 60.3458 9.65587 56.9751 8.63685C55.6702 8.25452 54.0039 8.61534 51.8954 9.69889C47.7398 7.46834 34.4289 10.7604 27.7632 12.6511C27.7665 12.6139 27.7595 12.5765 27.7429 12.5435C27.5689 12.0504 27.3034 11.599 26.9621 11.2161C26.6208 10.8331 26.2105 10.5262 25.7553 10.3135L16.2573 5.79059C15.8068 5.56883 15.3187 5.44504 14.8222 5.42656C14.3256 5.40809 13.8305 5.49531 13.3664 5.68304C12.4282 6.061 11.6699 6.81712 11.2579 7.78561L0.336014 33.4439C-0.528138 35.4615 0.336014 37.8399 2.22342 38.732L11.7398 43.255C12.1752 43.4692 12.6458 43.5919 13.1255 43.6163C13.8527 43.6409 14.5711 43.4415 15.1933 43.0426C15.3478 42.956 15.4955 42.8566 15.6351 42.7452L23.2843 46.8444L22.8426 47.651C21.6379 49.9445 22.4009 52.8332 24.5709 54.1077C25.2612 54.5025 26.0345 54.7071 26.8192 54.7024C27.1581 54.6932 27.4949 54.6432 27.8232 54.5535C27.1624 57.0599 28.1444 59.8206 30.3933 61.1376C31.2227 61.6192 32.1577 61.8604 33.1036 61.8366C33.5793 61.8389 34.0527 61.7674 34.5087 61.6242C34.9478 61.4821 35.3714 61.291 35.7724 61.0542C35.7947 61.277 35.835 61.4974 35.8928 61.7129C36.1019 62.5049 36.4835 63.2341 37.0072 63.8418C37.5309 64.4495 38.182 64.9188 38.9082 65.212C39.6344 65.5053 40.4155 65.6143 41.1887 65.5304C41.962 65.4464 42.7059 65.1718 43.3606 64.7286C43.6951 65.7608 44.3732 66.6289 45.2684 67.171C45.8906 67.5533 46.6134 67.7233 47.3159 67.7233C47.6811 67.698 48.0437 67.6412 48.4002 67.5533C48.9205 67.4006 49.4068 67.1397 49.8308 66.786C50.2547 66.4323 50.6079 65.9929 50.8696 65.4933L51.0907 65.0475C51.1105 65.0684 51.1105 65.0899 51.1304 65.0899C54.0421 67.0651 56.5918 68.0206 58.74 67.9997C59.6433 67.9781 60.4683 67.7846 61.2308 67.4049C63.2987 66.4063 64.2223 64.3887 64.6239 63.0718C65.7081 63.4117 66.772 63.6241 67.6555 63.6031C68.7601 63.5816 69.6832 63.3057 70.4462 62.775C72.1527 61.628 72.5944 59.6098 72.695 58.2934C73.0361 58.2934 73.3777 58.3144 73.7188 58.3144C75.2245 58.2934 76.5497 57.9111 77.6329 57.2099C79.9819 55.5967 80.5238 52.8542 80.6244 51.327C82.3913 51.2195 83.6962 50.6048 84.5797 49.3729C86.0853 47.3553 85.8246 44.3815 85.5231 42.7049C86.6038 42.557 87.6439 42.2806 88.6448 41.7956C88.7741 41.8901 88.9118 41.9712 89.056 42.0375C89.9908 42.4753 91.0202 42.4677 91.9565 42.0822L101.631 37.926C102.091 37.7274 102.509 37.4344 102.861 37.0639C103.214 36.6934 103.493 36.2528 103.684 35.7675C104.081 34.7866 104.07 33.6983 103.683 32.6954ZM14.8944 40.3888C14.8387 40.5094 14.7705 40.623 14.6911 40.7276C14.35 41.2159 13.8483 41.4923 13.3059 41.4923H13.2861C13.0369 41.4867 12.7912 41.4289 12.5633 41.3223L3.0464 36.8021C2.61868 36.5954 2.2857 36.218 2.12025 35.7524C1.95479 35.2867 1.97032 34.7708 2.16344 34.3172L13.0853 8.65782C13.2806 8.20526 13.6373 7.85289 14.0775 7.67775C14.5177 7.50262 15.0055 7.51897 15.4343 7.72323L24.9308 12.2472C25.3377 12.4406 25.6604 12.7897 25.8341 13.2243C25.8341 13.2458 25.8539 13.2668 25.8539 13.2878C25.942 13.5184 25.984 13.7658 25.9771 14.0144C25.9702 14.263 25.9146 14.5074 25.8138 14.7321L25.5728 15.3059L25.553 15.3269L14.8944 40.3888ZM28.9059 51.242C28.5857 51.8446 28.0526 52.2881 27.4236 52.4752C26.7946 52.6624 26.1211 52.5778 25.551 52.2401C24.3462 51.5604 23.9447 49.9676 24.5851 48.691L27.0546 44.0401C27.2101 43.7426 27.4197 43.4806 27.6713 43.2692C27.9229 43.0578 28.2115 42.9011 28.5206 42.8081C28.9904 42.6644 29.49 42.6717 29.9559 42.8292C30.4218 42.9868 30.8328 43.2873 31.1367 43.6927C31.4406 44.0981 31.6236 44.59 31.6625 45.1057C31.7014 45.6214 31.5944 46.1378 31.355 46.589L28.9059 51.242ZM36.0331 57.8686C35.5914 58.6967 34.8487 59.334 33.9653 59.5679C33.5334 59.7049 33.08 59.7491 32.6317 59.6981C32.1835 59.647 31.7494 59.5016 31.355 59.2705C29.7091 58.2934 29.1265 56.0629 30.0303 54.3233L33.1819 48.3764C33.6237 47.5268 34.346 46.9321 35.2295 46.6557C36.1129 46.3793 37.0366 46.5067 37.8595 46.974C38.6429 47.4413 39.2051 48.206 39.4658 49.1615C39.5921 49.6198 39.6304 50.1001 39.5788 50.5743C39.5271 51.0485 39.3864 51.507 39.1649 51.9228L36.0331 57.8686ZM43.3215 61.7979C42.5382 63.3482 40.6909 63.879 39.2457 63.0508C38.5439 62.6381 38.0252 61.9481 37.8032 61.1318C37.5811 60.3155 37.6737 59.4394 38.0608 58.6951L40.912 53.322C41.3136 52.5574 41.9358 52.0476 42.7389 51.7927C42.9949 51.7242 43.2577 51.6881 43.5218 51.6851C44.0419 51.6801 44.5542 51.8193 45.0076 52.089C45.3591 52.283 45.6677 52.5536 45.913 52.883C46.1584 53.2125 46.3349 53.5932 46.4309 54.0001C46.6455 54.8097 46.5593 55.6754 46.19 56.4199L43.3215 61.7979ZM51.353 60.2471L49.1444 64.4527C49.0038 64.7097 48.8158 64.9342 48.5917 65.113C48.3675 65.2917 48.1117 65.421 47.8395 65.4933C47.5763 65.5737 47.3007 65.5983 47.0285 65.5655C46.7563 65.5327 46.4929 65.4433 46.2535 65.3023C45.8206 65.0632 45.4794 64.673 45.2877 64.1978C45.2773 64.1174 45.257 64.0387 45.2272 63.9639C45.0869 63.3692 45.1474 62.775 45.4082 62.2647L47.6168 58.081C47.7535 57.8163 47.9397 57.5837 48.164 57.3974C48.3883 57.2111 48.6461 57.0751 48.9217 56.9975C49.0986 56.9456 49.281 56.9174 49.4646 56.9136C49.8304 56.8989 50.1926 56.9948 50.5087 57.19C50.7564 57.333 50.9745 57.5269 51.1503 57.7604C51.3261 57.9938 51.4561 58.2621 51.5325 58.5494C51.675 59.1194 51.6107 59.7253 51.352 60.2476L51.353 60.2471ZM82.9947 48.0774C82.3924 48.9271 81.2664 49.3519 79.7221 49.2244C76.9512 49.0755 72.9558 47.4612 67.8563 44.4031C67.6212 44.2722 67.3471 44.2433 67.0922 44.3226C66.8373 44.4019 66.6216 44.5832 66.4909 44.8279C66.2302 45.3377 66.3893 45.9958 66.8727 46.2722C71.7109 49.1395 75.6464 50.7957 78.6379 51.242C78.5174 52.389 78.1158 54.3427 76.5298 55.4262C75.6464 55.9994 74.2205 56.4033 71.992 56.0844H71.9722C69.7864 55.7445 66.8122 54.6825 62.7771 52.3466C62.2952 52.0702 61.6929 52.239 61.3914 52.7714C61.1307 53.2806 61.3314 53.9394 61.8133 54.2152C65.2066 56.1482 68.1718 57.3943 70.709 57.9536C70.6485 58.8457 70.4076 60.2895 69.3635 61.0117C67.7368 62.1162 64.4648 61.3091 60.1684 58.7183C59.7068 58.4209 59.0643 58.5908 58.7832 59.1216C58.5219 59.6098 58.7029 60.2686 59.1645 60.5444C60.3101 61.2492 61.5049 61.8605 62.7385 62.3727C62.437 63.2869 61.7945 64.8152 60.3895 65.4949C58.5021 66.409 55.6911 65.6433 52.1979 63.3073C52.1577 63.2858 52.0962 63.2649 52.0571 63.2433L53.0813 61.2897C54.2057 59.1657 53.4829 56.4893 51.4954 55.3429C50.5972 54.8133 49.5433 54.6616 48.544 54.918C48.5599 54.4096 48.5056 53.9015 48.3829 53.4097C48.0016 52.0508 47.1583 50.9038 45.9938 50.2241C44.8271 49.5553 43.4616 49.3879 42.1813 49.7568C41.978 49.8208 41.8001 49.9267 41.5993 50.0117C41.5785 49.5256 41.518 49.0423 41.4183 48.5673C40.9969 47.102 40.0931 45.87 38.8086 45.1258C37.1591 44.1267 35.23 44.1907 33.6643 45.0403C33.5627 43.49 32.7605 42.0031 31.3769 41.196C29.2287 39.9215 26.497 40.7502 25.2932 43.0012L24.2476 44.9758L16.8195 41.0051L27.1191 16.8137L27.6412 15.6033C27.7422 15.3418 27.8228 15.0721 27.8821 14.7967C35.6519 12.6091 45.3492 10.57 49.4859 11.1008C44.0469 14.6902 37.9414 20.9344 37.1789 22.1874C36.7773 22.8461 36.3956 24.2055 35.7556 26.5205C35.1735 28.6231 33.9688 32.9771 33.2262 33.4869C32.6639 33.7628 32.362 34.3575 32.4637 35.0372C32.667 36.4816 34.7923 37.9894 37.1215 38.3508C39.6712 38.7116 44.4922 38.0959 48.2243 29.5577C48.7662 28.2832 50.834 27.2852 53.5043 26.9878C56.5964 26.6689 59.6077 27.3911 60.5313 28.7086C62.7598 31.935 73.5211 42.8323 83.5193 42.8748C83.7964 44.2971 84.0175 46.718 82.9937 48.0774H82.9947ZM84.2193 40.7502C74.9835 41.3874 64.2025 30.4256 62.1346 27.4755C60.7891 25.5004 57.6374 24.7572 54.7059 24.7997C54.224 24.7997 53.7401 24.8207 53.2826 24.8632C49.8291 25.2455 47.2595 26.6684 46.3958 28.665C43.6255 35.0577 40.333 36.3321 38.104 36.2896C36.3976 36.2687 35.173 35.483 34.651 34.9727C35.7551 33.8047 36.5984 31.0225 37.6623 27.1147C38.104 25.5644 38.5859 23.7587 38.867 23.3338C39.4694 22.3358 46.7969 14.8596 52.3377 11.8224C54.7669 10.4845 55.9518 10.527 56.4337 10.6754C60.1079 11.7799 71.2707 13.2243 76.8923 13.9019H76.8984L87.0166 39.8672C87.0476 39.9703 87.0973 40.0661 87.163 40.149C87.163 40.1522 87.1665 40.1538 87.1676 40.1571C86.2177 40.5084 85.2237 40.7083 84.2183 40.7502H84.2193ZM101.831 34.9318C101.636 35.3986 101.315 35.7573 100.865 35.9412L91.5285 39.9592L91.4009 40.0129L91.1859 40.0931C90.9798 40.1836 90.7589 40.2305 90.5357 40.2313C90.2933 40.237 90.0526 40.1871 89.8302 40.085C89.6053 39.9758 89.4034 39.82 89.2364 39.6269C89.1349 39.5194 89.0478 39.3976 88.9777 39.2649L88.9721 39.2682C88.932 39.2045 88.8999 39.1357 88.8766 39.0633L79.1635 14.16L78.9993 13.7298L78.677 12.864C78.5574 12.5771 78.5157 12.2605 78.5565 11.9499H78.5509C78.5837 11.616 78.701 11.2977 78.8903 11.0283C79.0797 10.759 79.3342 10.5487 79.6271 10.4195L89.3015 6.26327C90.2119 5.86856 91.2504 6.35522 91.6164 7.29842L101.825 33.5004C101.917 33.7262 101.965 33.9695 101.966 34.2155C101.967 34.4615 101.921 34.7052 101.83 34.9318H101.831Z" fill="#170F40"/>
</svg>
