<svg width="72" height="72" viewBox="0 0 72 72" fill="none" xmlns="http://www.w3.org/2000/svg">
<g clip-path="url(#clip0_3301_15872)">
<path d="M58.2346 5.42578H13.764C9.15894 5.42578 5.42578 9.15894 5.42578 13.764V58.2346C5.42578 62.8397 9.15894 66.5728 13.764 66.5728H58.2346C62.8397 66.5728 66.5728 62.8397 66.5728 58.2346V13.764C66.5728 9.15894 62.8397 5.42578 58.2346 5.42578Z" stroke="#170F40" stroke-width="2" stroke-linejoin="round"/>
<path d="M52.6773 16.5439H19.3243C17.7893 16.5439 16.5449 17.7883 16.5449 19.3234V52.6763C16.5449 54.2113 17.7893 55.4557 19.3243 55.4557H52.6773C54.2123 55.4557 55.4567 54.2113 55.4567 52.6763V19.3234C55.4567 17.7883 54.2123 16.5439 52.6773 16.5439Z" stroke="#170F40" stroke-width="2" stroke-linejoin="round"/>
<path d="M35.9995 5.42601V-0.132812M49.8966 5.42601V-0.132812M22.1025 5.42601V-0.132812M35.9995 72.1319V66.5731M49.8966 72.1319V66.5731M22.1025 72.1319V66.5731M66.5731 35.9995H72.1319M66.5731 49.8966H72.1319M66.5731 22.1025H72.1319M-0.132812 35.9995H5.42601M-0.132812 49.8966H5.42601M-0.132812 22.1025H5.42601" stroke="#170F40" stroke-width="2" stroke-linecap="round" stroke-linejoin="round"/>
</g>
<defs>
<clipPath id="clip0_3301_15872">
<rect width="72" height="72" fill="white"/>
</clipPath>
</defs>
</svg>
